# xmcd CD database file
#
# Track frame offsets:
#	150
#	12434
#	25169
#	44209
#	64908
#	82605
#	93215
#	110384
#	126696
#	146222
#	154382
#	172161
#	183580
#	192775
#	204018
#	218283
#	227479
#	241632
#	249471
#	257408
#	268788
#	294418
#
# Disc length: 4123 seconds
#
# Revision: 2
# Processed by: cddbd v1.5.1PL0 Copyright (c) Steve Scherf et al.
# Submitted via: CDex 1.60beta1
#
DISCID=33101916
DTITLE=PINK VISION - かなえて！シスターズ
DYEAR=2005
DGENRE=Game
TTITLE0=はじまり
TTITLE1=お帰りなさい！
TTITLE2=お嬢さま方の特異体質
TTITLE3=最初はキスから
TTITLE4=脱がしてあげる
TTITLE5=凛の膣内に
TTITLE6=最初の絶頂
TTITLE7=今度は茜に
TTITLE8=凛＆茜絶頂、お口でちゅーっと
TTITLE9=お嬢さまがたのご成長
TTITLE10=2人のフェラテク
TTITLE11=睦美もお手伝いいたします
TTITLE12=もう少し焦らして
TTITLE13=ダブル素股で姉妹丼
TTITLE14=凛に膣内射精
TTITLE15=すぐに茜に
TTITLE16=睦美バイブで凛のお尻を
TTITLE17=2人で舐める美味しいミルク
TTITLE18=凛＆茜、絶頂漬け
TTITLE19=これは睦実さんの分
TTITLE20=すっきりさっぱり、おやすみなさい
TTITLE21=DataTrack
EXTD=YEAR: 2005
EXTT0=
EXTT1=
EXTT2=
EXTT3=
EXTT4=
EXTT5=
EXTT6=
EXTT7=
EXTT8=
EXTT9=
EXTT10=
EXTT11=
EXTT12=
EXTT13=
EXTT14=
EXTT15=
EXTT16=
EXTT17=
EXTT18=
EXTT19=
EXTT20=
EXTT21=
PLAYORDER=
